<svg xmlns="http://www.w3.org/2000/svg" width="1408" height="547" viewBox="0 0 1208 447" fill="none"  xmlns:v="https://vecta.io/nano"><path d="M1208 446.715V125.948l-27.07-3.495c-45-5.653-89.91-31.645-135.73-58.165C991.477 33.195 936.5 1.375 878.646.753 805.083-.039 752.94 11.651 694.185 28.232c-16.143 4.556-32.034 9.533-47.925 14.511-21.286 6.667-42.572 13.335-64.464 18.988-33.846 8.74-64.447 16.263-105.563 11.794-31.417-3.415-48.994-10.071-75.79-22.522-69.894-32.479-114.118-34.122-169.905-22.565-26.449 5.479-45.897 14.995-69.876 26.727l-15.435 7.487C69.718 98.695 47.165 115.713 1.406 150.239L0 151.3v295.415h1208z" fill="url(#A)"/><defs><linearGradient id="A" x1="28.854" y1="248.215" x2="1181.19" y2="55.048" gradientUnits="userSpaceOnUse"><stop stop-color="#91bde5"/><stop offset="1" stop-color="#0e5ab6"/></linearGradient></defs></svg>