<svg width="85" height="80" viewBox="0 0 85 80" fill="none" xmlns="http://www.w3.org/2000/svg">
<g filter="url(#filter0_d)">
<path d="M44.7068 19.5836L46.2069 24.2259C47.6271 23.0107 49.2754 22.0953 51.0539 21.534C53.0385 20.8839 54.7909 20.5182 56.3752 20.3082L54.9288 15.8285C53.1252 16.09 51.3471 16.5069 49.6143 17.0746C47.8582 17.6476 46.2023 18.4942 44.7068 19.5836V19.5836ZM47.8248 29.2508L49.325 33.893C50.7452 32.6779 52.3935 31.7624 54.172 31.2011C56.1565 30.551 57.909 30.1853 59.4933 29.9754L58.0469 25.4957C56.2432 25.7571 54.4652 26.174 52.7324 26.7417C50.9755 27.3126 49.3192 28.1594 47.8248 29.2508V29.2508ZM50.9463 38.9145L52.4465 43.5568C53.8666 42.3416 55.5149 41.4262 57.2934 40.8649C59.278 40.2148 61.0304 39.8491 62.6147 39.6392L61.1683 35.1594C59.3647 35.4209 57.5866 35.8378 55.8538 36.4055C54.0969 36.9764 52.4406 37.8232 50.9463 38.9145ZM27.1924 46.269L28.6387 50.7488C30.2417 49.876 31.9218 49.155 33.6573 48.5952C35.4241 47.9985 37.2919 47.7648 39.1501 47.9079L37.6499 43.2656C35.8051 43.2683 33.9721 43.5619 32.2176 44.1358C30.4847 44.7 28.8034 45.4137 27.1924 46.269V46.269ZM20.9529 26.9381L22.3992 31.4179C24.0028 30.5465 25.6828 29.8256 27.4177 29.2643C29.1846 28.6676 31.0524 28.4339 32.9105 28.577L31.4137 23.9313C29.5677 23.9354 27.7337 24.2302 25.9781 24.8049C24.2452 25.369 22.5638 26.0828 20.9529 26.9381V26.9381ZM24.0709 36.6053L25.5173 41.085C27.1203 40.2122 28.8003 39.4913 30.5358 38.9315C32.3026 38.3348 34.1704 38.101 36.0286 38.2441L34.5318 33.5985C32.687 33.6011 30.854 33.8947 29.0996 34.4687C27.3654 35.0339 25.683 35.7487 24.0709 36.6053V36.6053ZM46.2843 6.76407C41.8652 8.18535 38.1773 11.297 36.0152 15.429C31.8543 13.3663 27.055 13.0319 22.6515 14.4978C14.1651 17.2743 9.30127 23.3929 9.30127 23.3929L23.0753 66.0131C23.4991 67.3235 25.2482 67.6282 26.0286 66.4973C27.707 64.0627 30.9395 60.8832 36.9839 58.9057C42.7626 57.0163 46.9705 59.0886 49.2779 60.8629C50.1928 61.5672 51.5046 61.066 51.841 59.9554C52.6886 57.1552 54.8918 53.0479 60.6201 51.1754C66.6712 49.1946 71.1448 49.8582 73.9266 50.8368C75.2216 51.2905 76.4493 50.0174 76.0288 48.707L62.2783 6.06316C62.2783 6.06316 54.7707 3.9909 46.2843 6.76407ZM45.9042 53.6472C42.4512 52.601 38.7616 52.6531 35.3391 53.7962C31.1312 55.1709 28.1847 57.0096 26.2607 58.5502L15.3457 24.7507C16.5499 23.5385 19.3383 21.2225 24.2997 19.6006C28.9717 18.0735 32.8029 19.3805 35.329 20.8805L45.9042 53.6472ZM69.093 44.5422C66.6342 44.4338 63.1764 44.6911 58.9685 46.0693C55.5321 47.1684 52.5167 49.3088 50.3341 52.198L39.7589 19.4313C40.9227 16.7224 43.257 13.3973 47.9325 11.8702C52.8905 10.2483 56.4996 10.4718 58.1814 10.7393L69.093 44.5422V44.5422Z" fill="url(#paint0_linear)"/>
</g>
<defs>
<filter id="filter0_d" x="0.709229" y="0.164111" width="83.9957" height="79.0591" filterUnits="userSpaceOnUse" color-interpolation-filters="sRGB">
<feFlood flood-opacity="0" result="BackgroundImageFix"/>
<feColorMatrix in="SourceAlpha" type="matrix" values="0 0 0 0 0 0 0 0 0 0 0 0 0 0 0 0 0 0 127 0"/>
<feOffset dy="3.43682"/>
<feGaussianBlur stdDeviation="4.29602"/>
<feColorMatrix type="matrix" values="0 0 0 0 0 0 0 0 0 0.0458333 0 0 0 0 0.458333 0 0 0 0.16 0"/>
<feBlend mode="normal" in2="BackgroundImageFix" result="effect1_dropShadow"/>
<feBlend mode="normal" in="SourceGraphic" in2="effect1_dropShadow" result="shape"/>
</filter>
<linearGradient id="paint0_linear" x1="9.30127" y1="5.31937" x2="88.1784" y2="38.589" gradientUnits="userSpaceOnUse">
<stop stop-color="#CDD7FA"/>
<stop offset="1" stop-color="#3D4FF0"/>
</linearGradient>
</defs>
</svg>
