<svg width="80" height="80" viewBox="0 0 80 80" fill="none" xmlns="http://www.w3.org/2000/svg">
<g filter="url(#filter0_d)">
<path d="M64.4041 54.1395C63.4263 54.144 62.462 54.3706 61.5833 54.8025L52.144 45.3003H44.6475V49.7199H50.3242L58.4793 57.9293C58.05 58.8139 57.8242 59.7845 57.8186 60.7689C57.8186 62.0801 58.2048 63.3618 58.9284 64.452C59.6521 65.5422 60.6806 66.392 61.8839 66.8937C63.0873 67.3955 64.4114 67.5268 65.6889 67.271C66.9664 67.0152 68.1398 66.3838 69.0608 65.4566C69.9818 64.5295 70.609 63.3483 70.8631 62.0623C71.1172 60.7763 70.9868 59.4433 70.4884 58.232C69.9899 57.0206 69.1458 55.9852 68.0628 55.2568C66.9799 54.5283 65.7066 54.1395 64.4041 54.1395ZM64.4041 62.9787C63.9699 62.9787 63.5455 62.8491 63.1845 62.6063C62.8235 62.3635 62.5422 62.0184 62.376 61.6146C62.2099 61.2108 62.1664 60.7665 62.2511 60.3378C62.3358 59.9092 62.5449 59.5154 62.8519 59.2064C63.1589 58.8973 63.55 58.6869 63.9758 58.6016C64.4017 58.5163 64.843 58.5601 65.2442 58.7273C65.6453 58.8946 65.9881 59.1778 66.2293 59.5412C66.4705 59.9046 66.5993 60.3319 66.5993 60.7689C66.5993 61.355 66.368 61.9171 65.9563 62.3315C65.5447 62.7459 64.9863 62.9787 64.4041 62.9787Z" fill="url(#paint0_linear)"/>
<path d="M64.4041 29.8316C63.0465 29.8356 61.7235 30.2626 60.6167 31.054C59.5098 31.8453 58.6735 32.9622 58.2225 34.2512H44.6475V38.6708H58.2225C58.6269 39.8137 59.3356 40.8227 60.2711 41.5875C61.2066 42.3523 62.3329 42.8436 63.5271 43.0076C64.7212 43.1716 65.9371 43.002 67.0419 42.5175C68.1468 42.0329 69.0981 41.2519 69.7918 40.2599C70.4856 39.2678 70.8951 38.1029 70.9757 36.8924C71.0563 35.682 70.8048 34.4725 70.2487 33.3961C69.6926 32.3198 68.8534 31.418 67.8226 30.7894C66.7919 30.1607 65.6093 29.8294 64.4041 29.8316V29.8316ZM64.4041 38.6708C63.97 38.6708 63.5455 38.5412 63.1845 38.2984C62.8235 38.0556 62.5422 37.7105 62.376 37.3067C62.2099 36.9029 62.1664 36.4586 62.2511 36.0299C62.3358 35.6012 62.5449 35.2075 62.8519 34.8984C63.1589 34.5894 63.55 34.3789 63.9759 34.2936C64.4017 34.2084 64.8431 34.2521 65.2442 34.4194C65.6453 34.5867 65.9881 34.8699 66.2293 35.2333C66.4706 35.5967 66.5993 36.0239 66.5993 36.461C66.5993 37.0471 66.368 37.6092 65.9564 38.0236C65.5447 38.438 64.9863 38.6708 64.4041 38.6708Z" fill="url(#paint1_linear)"/>
<path d="M64.4041 5.52344C62.6581 5.5252 60.984 6.22422 59.7494 7.46711C58.5147 8.71 57.8203 10.3952 57.8186 12.1529C57.8261 13.2116 58.0882 14.2526 58.5825 15.187L50.3462 23.2021H44.6475V27.6217H52.1199L61.7787 18.2255C62.6759 18.6194 63.6491 18.8069 64.6274 18.7744C65.6057 18.7419 66.5645 18.4901 67.434 18.0375C68.3034 17.585 69.0617 16.9429 69.6536 16.1581C70.2455 15.3733 70.6561 14.4654 70.8555 13.5007C71.0549 12.536 71.038 11.5387 70.8063 10.5814C70.5745 9.62404 70.1335 8.73078 69.5156 7.96663C68.8976 7.20248 68.1181 6.58666 67.2339 6.16402C66.3497 5.74137 65.383 5.52254 64.4041 5.52344ZM64.4041 14.3627C63.97 14.3627 63.5455 14.2331 63.1845 13.9903C62.8235 13.7475 62.5422 13.4024 62.376 12.9986C62.2099 12.5948 62.1664 12.1505 62.2511 11.7218C62.3358 11.2931 62.5449 10.8994 62.8519 10.5903C63.1589 10.2813 63.55 10.0708 63.9759 9.98556C64.4017 9.90029 64.8431 9.94405 65.2442 10.1113C65.6453 10.2786 65.9881 10.5618 66.2293 10.9252C66.4706 11.2886 66.5993 11.7159 66.5993 12.1529C66.5993 12.739 66.368 13.3011 65.9563 13.7155C65.5447 14.1299 64.9863 14.3627 64.4041 14.3627Z" fill="url(#paint2_linear)"/>
<path d="M44.6479 14.362H49.0382V9.94238H44.6479C43.3969 9.94659 42.1614 10.2215 41.0252 10.7484C39.8889 11.2753 38.8785 12.0419 38.0623 12.9963C37.2461 12.0419 36.2357 11.2753 35.0995 10.7484C33.9632 10.2215 32.7278 9.94659 31.4768 9.94238H29.2816C24.0436 9.94823 19.0217 12.0455 15.3179 15.774C11.6141 19.5025 9.53071 24.5578 9.5249 29.8307V43.0896C9.53071 48.3625 11.6141 53.4178 15.3179 57.1463C19.0217 60.8749 24.0436 62.9721 29.2816 62.9779H31.4768C32.7278 62.9737 33.9632 62.6989 35.0995 62.172C36.2357 61.645 37.2461 60.8784 38.0623 59.924C38.8785 60.8784 39.8889 61.645 41.0252 62.172C42.1614 62.6989 43.3969 62.9737 44.6479 62.9779H49.0382V58.5583H44.6479C43.4838 58.5571 42.3678 58.0911 41.5447 57.2625C40.7216 56.434 40.2587 55.3105 40.2575 54.1387V18.7816C40.2587 17.6098 40.7216 16.4864 41.5447 15.6578C42.3678 14.8292 43.4838 14.3632 44.6479 14.362V14.362ZM31.4768 58.5583H29.2816C25.5902 58.5517 22.0245 57.2085 19.2355 54.7742C16.4465 52.3399 14.6205 48.9769 14.0909 45.2994H18.3056V40.8798H13.9153V32.0405H20.5008C22.2469 32.0388 23.9209 31.3398 25.1556 30.0969C26.3902 28.854 27.0846 27.1688 27.0864 25.4111V20.9915H22.696V25.4111C22.696 25.9972 22.4647 26.5592 22.0531 26.9737C21.6414 27.3881 21.083 27.6209 20.5008 27.6209H14.0909C14.6205 23.9434 16.4465 20.5804 19.2355 18.1461C22.0245 15.7118 25.5902 14.3687 29.2816 14.362H31.4768C32.6408 14.3632 33.7568 14.8292 34.5799 15.6578C35.403 16.4864 35.866 17.6098 35.8671 18.7816V27.6209H31.4768V32.0405H35.8671V40.8798H31.4768C29.7307 40.8816 28.0566 41.5806 26.822 42.8235C25.5873 44.0663 24.8929 45.7515 24.8912 47.5092V51.9289H29.2816V47.5092C29.2816 46.9232 29.5128 46.3611 29.9245 45.9467C30.3362 45.5322 30.8946 45.2994 31.4768 45.2994H35.8671V54.1387C35.866 55.3105 35.403 56.434 34.5799 57.2625C33.7568 58.0911 32.6408 58.5571 31.4768 58.5583V58.5583Z" fill="url(#paint3_linear)"/>
</g>
<defs>
<filter id="filter0_d" x="0.932861" y="0.368213" width="78.6527" height="79.059" filterUnits="userSpaceOnUse" color-interpolation-filters="sRGB">
<feFlood flood-opacity="0" result="BackgroundImageFix"/>
<feColorMatrix in="SourceAlpha" type="matrix" values="0 0 0 0 0 0 0 0 0 0 0 0 0 0 0 0 0 0 127 0"/>
<feOffset dy="3.43682"/>
<feGaussianBlur stdDeviation="4.29602"/>
<feColorMatrix type="matrix" values="0 0 0 0 0 0 0 0 0 0.0458333 0 0 0 0 0.458333 0 0 0 0.16 0"/>
<feBlend mode="normal" in2="BackgroundImageFix" result="effect1_dropShadow"/>
<feBlend mode="normal" in="SourceGraphic" in2="effect1_dropShadow" result="shape"/>
</filter>
<linearGradient id="paint0_linear" x1="44.6475" y1="45.3003" x2="74.7521" y2="59.3185" gradientUnits="userSpaceOnUse">
<stop stop-color="#CDD7FA"/>
<stop offset="1" stop-color="#3D4FF0"/>
</linearGradient>
<linearGradient id="paint1_linear" x1="44.6475" y1="29.8316" x2="67.4812" y2="47.5824" gradientUnits="userSpaceOnUse">
<stop stop-color="#CDD7FA"/>
<stop offset="1" stop-color="#3D4FF0"/>
</linearGradient>
<linearGradient id="paint2_linear" x1="44.6475" y1="5.52345" x2="74.755" y2="19.5449" gradientUnits="userSpaceOnUse">
<stop stop-color="#CDD7FA"/>
<stop offset="1" stop-color="#3D4FF0"/>
</linearGradient>
<linearGradient id="paint3_linear" x1="9.5249" y1="9.94242" x2="60.1825" y2="24.6853" gradientUnits="userSpaceOnUse">
<stop stop-color="#CDD7FA"/>
<stop offset="1" stop-color="#3D4FF0"/>
</linearGradient>
</defs>
</svg>
